# xmcd CD database file
#
# Track frame offsets:
#	150
#	6942
#	31642
#	50590
#	71567
#	87067
#	103382
#	122142
#	141190
#	161275
#	174457
#	183267
#
# Disc length: 2715 seconds
#
# Revision: 0
# Processed by: cddbd v1.5.1PL0 Copyright (c) Steve Scherf et al.
# Submitted via: CDex 1.51
#
DISCID=980a990c
DTITLE=杉本恭一 - Penny Arcade
DYEAR=2004
DGENRE=Rock
TTITLE0=感傷的な会話
TTITLE1=日曜日
TTITLE2=Timing
TTITLE3=秘密基地
TTITLE4=蝶々の指輪
TTITLE5=ピーナッツ
TTITLE6=イメージの裏切り
TTITLE7=石の星
TTITLE8=記憶
TTITLE9=愛の国ガンダーラ
TTITLE10=Happy BIRTHDAY(This Is Not The Song Made For The 40th Birthday )
TTITLE11=ハミング-A Tune Is Hamming And Goes
EXTD=YEAR: 2004
EXTT0=
EXTT1=
EXTT2=
EXTT3=
EXTT4=
EXTT5=
EXTT6=
EXTT7=
EXTT8=
EXTT9=
EXTT10=
EXTT11=
PLAYORDER=
